<mxfile host="app.diagrams.net" modified="2022-10-13T12:40:02.910Z" agent="5.0 (X11)" etag="yh11cN7SI9-22e_1j-vs" version="20.4.0" type="github">
  <diagram id="C5RBs43oDa-KdzZeNtuy" name="Page-1">
    <mxGraphModel dx="385" dy="657" grid="1" gridSize="10" guides="1" tooltips="1" connect="1" arrows="1" fold="1" page="1" pageScale="1" pageWidth="827" pageHeight="1169" math="0" shadow="0">
      <root>
        <mxCell id="WIyWlLk6GJQsqaUBKTNV-0" />
        <mxCell id="WIyWlLk6GJQsqaUBKTNV-1" parent="WIyWlLk6GJQsqaUBKTNV-0" />
        <mxCell id="WIyWlLk6GJQsqaUBKTNV-2" value="" style="rounded=0;html=1;jettySize=auto;orthogonalLoop=1;fontSize=11;endArrow=block;endFill=0;endSize=8;strokeWidth=1;shadow=0;labelBackgroundColor=none;edgeStyle=orthogonalEdgeStyle;entryX=0.5;entryY=0;entryDx=0;entryDy=0;" parent="WIyWlLk6GJQsqaUBKTNV-1" source="WIyWlLk6GJQsqaUBKTNV-3" target="G9P82WGp1A6Tgu5w0M1S-5" edge="1">
          <mxGeometry relative="1" as="geometry">
            <mxPoint x="484" y="190" as="targetPoint" />
          </mxGeometry>
        </mxCell>
        <mxCell id="WIyWlLk6GJQsqaUBKTNV-3" value="&lt;div&gt;*str = %&lt;br&gt;&lt;/div&gt;" style="rounded=1;whiteSpace=wrap;html=1;fontSize=12;glass=0;strokeWidth=1;shadow=0;" parent="WIyWlLk6GJQsqaUBKTNV-1" vertex="1">
          <mxGeometry x="277" y="90" width="120" height="40" as="geometry" />
        </mxCell>
        <mxCell id="G9P82WGp1A6Tgu5w0M1S-0" value=". = uzunluk" style="rounded=1;whiteSpace=wrap;html=1;" vertex="1" parent="WIyWlLk6GJQsqaUBKTNV-1">
          <mxGeometry x="450" y="20" width="100" height="20" as="geometry" />
        </mxCell>
        <mxCell id="G9P82WGp1A6Tgu5w0M1S-3" value="&lt;div&gt;# = dönüştürücü&lt;/div&gt;" style="rounded=1;whiteSpace=wrap;html=1;" vertex="1" parent="WIyWlLk6GJQsqaUBKTNV-1">
          <mxGeometry x="320" y="20" width="100" height="20" as="geometry" />
        </mxCell>
        <mxCell id="G9P82WGp1A6Tgu5w0M1S-7" style="edgeStyle=orthogonalEdgeStyle;rounded=0;orthogonalLoop=1;jettySize=auto;html=1;" edge="1" parent="WIyWlLk6GJQsqaUBKTNV-1" source="G9P82WGp1A6Tgu5w0M1S-5" target="G9P82WGp1A6Tgu5w0M1S-6">
          <mxGeometry relative="1" as="geometry" />
        </mxCell>
        <mxCell id="G9P82WGp1A6Tgu5w0M1S-15" value="" style="edgeStyle=orthogonalEdgeStyle;rounded=0;orthogonalLoop=1;jettySize=auto;html=1;" edge="1" parent="WIyWlLk6GJQsqaUBKTNV-1" source="G9P82WGp1A6Tgu5w0M1S-5" target="G9P82WGp1A6Tgu5w0M1S-14">
          <mxGeometry relative="1" as="geometry" />
        </mxCell>
        <mxCell id="G9P82WGp1A6Tgu5w0M1S-5" value="Dönüştürücü?" style="rhombus;whiteSpace=wrap;html=1;" vertex="1" parent="WIyWlLk6GJQsqaUBKTNV-1">
          <mxGeometry x="284" y="250" width="106" height="90" as="geometry" />
        </mxCell>
        <mxCell id="G9P82WGp1A6Tgu5w0M1S-9" value="" style="edgeStyle=orthogonalEdgeStyle;rounded=0;orthogonalLoop=1;jettySize=auto;html=1;" edge="1" parent="WIyWlLk6GJQsqaUBKTNV-1" source="G9P82WGp1A6Tgu5w0M1S-6" target="G9P82WGp1A6Tgu5w0M1S-8">
          <mxGeometry relative="1" as="geometry" />
        </mxCell>
        <mxCell id="G9P82WGp1A6Tgu5w0M1S-39" value="" style="edgeStyle=orthogonalEdgeStyle;rounded=0;orthogonalLoop=1;jettySize=auto;html=1;" edge="1" parent="WIyWlLk6GJQsqaUBKTNV-1" source="G9P82WGp1A6Tgu5w0M1S-6" target="G9P82WGp1A6Tgu5w0M1S-38">
          <mxGeometry relative="1" as="geometry" />
        </mxCell>
        <mxCell id="G9P82WGp1A6Tgu5w0M1S-6" value="Uzunluk?" style="rhombus;whiteSpace=wrap;html=1;" vertex="1" parent="WIyWlLk6GJQsqaUBKTNV-1">
          <mxGeometry x="600" y="250" width="106" height="90" as="geometry" />
        </mxCell>
        <mxCell id="G9P82WGp1A6Tgu5w0M1S-52" value="" style="edgeStyle=orthogonalEdgeStyle;rounded=0;orthogonalLoop=1;jettySize=auto;html=1;" edge="1" parent="WIyWlLk6GJQsqaUBKTNV-1" source="G9P82WGp1A6Tgu5w0M1S-8" target="G9P82WGp1A6Tgu5w0M1S-51">
          <mxGeometry relative="1" as="geometry" />
        </mxCell>
        <mxCell id="G9P82WGp1A6Tgu5w0M1S-64" value="" style="edgeStyle=orthogonalEdgeStyle;rounded=0;orthogonalLoop=1;jettySize=auto;html=1;" edge="1" parent="WIyWlLk6GJQsqaUBKTNV-1" source="G9P82WGp1A6Tgu5w0M1S-8" target="G9P82WGp1A6Tgu5w0M1S-63">
          <mxGeometry relative="1" as="geometry" />
        </mxCell>
        <mxCell id="G9P82WGp1A6Tgu5w0M1S-8" value="Sayı" style="rhombus;whiteSpace=wrap;html=1;" vertex="1" parent="WIyWlLk6GJQsqaUBKTNV-1">
          <mxGeometry x="1000" y="250" width="106" height="90" as="geometry" />
        </mxCell>
        <mxCell id="G9P82WGp1A6Tgu5w0M1S-10" value="Hayır" style="text;html=1;align=center;verticalAlign=middle;resizable=0;points=[];autosize=1;strokeColor=none;fillColor=none;" vertex="1" parent="WIyWlLk6GJQsqaUBKTNV-1">
          <mxGeometry x="389" y="260" width="50" height="30" as="geometry" />
        </mxCell>
        <mxCell id="G9P82WGp1A6Tgu5w0M1S-11" value="Hayır" style="text;html=1;align=center;verticalAlign=middle;resizable=0;points=[];autosize=1;strokeColor=none;fillColor=none;" vertex="1" parent="WIyWlLk6GJQsqaUBKTNV-1">
          <mxGeometry x="700" y="260" width="50" height="30" as="geometry" />
        </mxCell>
        <mxCell id="G9P82WGp1A6Tgu5w0M1S-18" value="" style="edgeStyle=orthogonalEdgeStyle;rounded=0;orthogonalLoop=1;jettySize=auto;html=1;" edge="1" parent="WIyWlLk6GJQsqaUBKTNV-1" source="G9P82WGp1A6Tgu5w0M1S-14" target="G9P82WGp1A6Tgu5w0M1S-17">
          <mxGeometry relative="1" as="geometry" />
        </mxCell>
        <mxCell id="G9P82WGp1A6Tgu5w0M1S-24" value="" style="edgeStyle=orthogonalEdgeStyle;rounded=0;orthogonalLoop=1;jettySize=auto;html=1;" edge="1" parent="WIyWlLk6GJQsqaUBKTNV-1" source="G9P82WGp1A6Tgu5w0M1S-14" target="G9P82WGp1A6Tgu5w0M1S-23">
          <mxGeometry relative="1" as="geometry" />
        </mxCell>
        <mxCell id="G9P82WGp1A6Tgu5w0M1S-14" value="X?" style="rhombus;whiteSpace=wrap;html=1;" vertex="1" parent="WIyWlLk6GJQsqaUBKTNV-1">
          <mxGeometry x="180" y="420" width="106" height="90" as="geometry" />
        </mxCell>
        <mxCell id="G9P82WGp1A6Tgu5w0M1S-17" value="Değeri büyük harflerlerle 16lık tabanında yazdır" style="whiteSpace=wrap;html=1;" vertex="1" parent="WIyWlLk6GJQsqaUBKTNV-1">
          <mxGeometry x="173" y="605" width="120" height="60" as="geometry" />
        </mxCell>
        <mxCell id="G9P82WGp1A6Tgu5w0M1S-27" value="" style="edgeStyle=orthogonalEdgeStyle;rounded=0;orthogonalLoop=1;jettySize=auto;html=1;" edge="1" parent="WIyWlLk6GJQsqaUBKTNV-1" source="G9P82WGp1A6Tgu5w0M1S-23" target="G9P82WGp1A6Tgu5w0M1S-26">
          <mxGeometry relative="1" as="geometry" />
        </mxCell>
        <mxCell id="G9P82WGp1A6Tgu5w0M1S-31" value="" style="edgeStyle=orthogonalEdgeStyle;rounded=0;orthogonalLoop=1;jettySize=auto;html=1;" edge="1" parent="WIyWlLk6GJQsqaUBKTNV-1" source="G9P82WGp1A6Tgu5w0M1S-23" target="G9P82WGp1A6Tgu5w0M1S-30">
          <mxGeometry relative="1" as="geometry" />
        </mxCell>
        <mxCell id="G9P82WGp1A6Tgu5w0M1S-23" value="x?" style="rhombus;whiteSpace=wrap;html=1;" vertex="1" parent="WIyWlLk6GJQsqaUBKTNV-1">
          <mxGeometry x="314" y="420" width="106" height="90" as="geometry" />
        </mxCell>
        <mxCell id="G9P82WGp1A6Tgu5w0M1S-25" value="Hayır" style="text;html=1;align=center;verticalAlign=middle;resizable=0;points=[];autosize=1;strokeColor=none;fillColor=none;" vertex="1" parent="WIyWlLk6GJQsqaUBKTNV-1">
          <mxGeometry x="270" y="430" width="50" height="30" as="geometry" />
        </mxCell>
        <mxCell id="G9P82WGp1A6Tgu5w0M1S-26" value="&lt;div&gt;Hata&lt;/div&gt;" style="whiteSpace=wrap;html=1;" vertex="1" parent="WIyWlLk6GJQsqaUBKTNV-1">
          <mxGeometry x="456.5" y="612.5" width="55" height="45" as="geometry" />
        </mxCell>
        <mxCell id="G9P82WGp1A6Tgu5w0M1S-28" value="Hayır" style="text;html=1;align=center;verticalAlign=middle;resizable=0;points=[];autosize=1;strokeColor=none;fillColor=none;" vertex="1" parent="WIyWlLk6GJQsqaUBKTNV-1">
          <mxGeometry x="405" y="440" width="50" height="30" as="geometry" />
        </mxCell>
        <mxCell id="G9P82WGp1A6Tgu5w0M1S-30" value="Değeri küçük harflerlerle 16lık tabanında yazdır" style="whiteSpace=wrap;html=1;" vertex="1" parent="WIyWlLk6GJQsqaUBKTNV-1">
          <mxGeometry x="307" y="605" width="120" height="60" as="geometry" />
        </mxCell>
        <mxCell id="G9P82WGp1A6Tgu5w0M1S-32" value="&lt;div&gt;Evet&lt;/div&gt;" style="text;html=1;align=center;verticalAlign=middle;resizable=0;points=[];autosize=1;strokeColor=none;fillColor=none;" vertex="1" parent="WIyWlLk6GJQsqaUBKTNV-1">
          <mxGeometry x="286" y="330" width="50" height="30" as="geometry" />
        </mxCell>
        <mxCell id="G9P82WGp1A6Tgu5w0M1S-33" value="&lt;div&gt;Evet&lt;/div&gt;" style="text;html=1;align=center;verticalAlign=middle;resizable=0;points=[];autosize=1;strokeColor=none;fillColor=none;" vertex="1" parent="WIyWlLk6GJQsqaUBKTNV-1">
          <mxGeometry x="180" y="510" width="50" height="30" as="geometry" />
        </mxCell>
        <mxCell id="G9P82WGp1A6Tgu5w0M1S-34" value="&lt;div&gt;Evet&lt;/div&gt;" style="text;html=1;align=center;verticalAlign=middle;resizable=0;points=[];autosize=1;strokeColor=none;fillColor=none;" vertex="1" parent="WIyWlLk6GJQsqaUBKTNV-1">
          <mxGeometry x="314" y="510" width="50" height="30" as="geometry" />
        </mxCell>
        <mxCell id="G9P82WGp1A6Tgu5w0M1S-44" style="edgeStyle=orthogonalEdgeStyle;rounded=0;orthogonalLoop=1;jettySize=auto;html=1;" edge="1" parent="WIyWlLk6GJQsqaUBKTNV-1" source="G9P82WGp1A6Tgu5w0M1S-38" target="G9P82WGp1A6Tgu5w0M1S-42">
          <mxGeometry relative="1" as="geometry" />
        </mxCell>
        <mxCell id="G9P82WGp1A6Tgu5w0M1S-38" value="len = nokta ile format arasındaki sayı" style="whiteSpace=wrap;html=1;" vertex="1" parent="WIyWlLk6GJQsqaUBKTNV-1">
          <mxGeometry x="593" y="435" width="120" height="60" as="geometry" />
        </mxCell>
        <mxCell id="G9P82WGp1A6Tgu5w0M1S-47" value="" style="edgeStyle=orthogonalEdgeStyle;rounded=0;orthogonalLoop=1;jettySize=auto;html=1;" edge="1" parent="WIyWlLk6GJQsqaUBKTNV-1" source="G9P82WGp1A6Tgu5w0M1S-42" target="G9P82WGp1A6Tgu5w0M1S-46">
          <mxGeometry relative="1" as="geometry" />
        </mxCell>
        <mxCell id="G9P82WGp1A6Tgu5w0M1S-50" value="" style="edgeStyle=orthogonalEdgeStyle;rounded=0;orthogonalLoop=1;jettySize=auto;html=1;" edge="1" parent="WIyWlLk6GJQsqaUBKTNV-1" source="G9P82WGp1A6Tgu5w0M1S-42" target="G9P82WGp1A6Tgu5w0M1S-49">
          <mxGeometry relative="1" as="geometry" />
        </mxCell>
        <mxCell id="G9P82WGp1A6Tgu5w0M1S-42" value="string mi?" style="rhombus;whiteSpace=wrap;html=1;" vertex="1" parent="WIyWlLk6GJQsqaUBKTNV-1">
          <mxGeometry x="600" y="575" width="106" height="90" as="geometry" />
        </mxCell>
        <mxCell id="G9P82WGp1A6Tgu5w0M1S-45" value="&lt;div&gt;Evet&lt;/div&gt;" style="text;html=1;align=center;verticalAlign=middle;resizable=0;points=[];autosize=1;strokeColor=none;fillColor=none;" vertex="1" parent="WIyWlLk6GJQsqaUBKTNV-1">
          <mxGeometry x="600" y="340" width="50" height="30" as="geometry" />
        </mxCell>
        <mxCell id="G9P82WGp1A6Tgu5w0M1S-46" value="len kadar yazdır" style="whiteSpace=wrap;html=1;" vertex="1" parent="WIyWlLk6GJQsqaUBKTNV-1">
          <mxGeometry x="593" y="760" width="120" height="60" as="geometry" />
        </mxCell>
        <mxCell id="G9P82WGp1A6Tgu5w0M1S-48" value="&lt;div&gt;Evet&lt;/div&gt;" style="text;html=1;align=center;verticalAlign=middle;resizable=0;points=[];autosize=1;strokeColor=none;fillColor=none;" vertex="1" parent="WIyWlLk6GJQsqaUBKTNV-1">
          <mxGeometry x="600" y="665" width="50" height="30" as="geometry" />
        </mxCell>
        <mxCell id="G9P82WGp1A6Tgu5w0M1S-49" value="sayıdan önce (sayının basamak sayısı) - len kadar sıfır yazdır. Sonra sayının kendisini" style="whiteSpace=wrap;html=1;" vertex="1" parent="WIyWlLk6GJQsqaUBKTNV-1">
          <mxGeometry x="740" y="750" width="141" height="80" as="geometry" />
        </mxCell>
        <mxCell id="G9P82WGp1A6Tgu5w0M1S-54" value="" style="edgeStyle=orthogonalEdgeStyle;rounded=0;orthogonalLoop=1;jettySize=auto;html=1;" edge="1" parent="WIyWlLk6GJQsqaUBKTNV-1" source="G9P82WGp1A6Tgu5w0M1S-51" target="G9P82WGp1A6Tgu5w0M1S-53">
          <mxGeometry relative="1" as="geometry" />
        </mxCell>
        <mxCell id="G9P82WGp1A6Tgu5w0M1S-57" value="" style="edgeStyle=orthogonalEdgeStyle;rounded=0;orthogonalLoop=1;jettySize=auto;html=1;" edge="1" parent="WIyWlLk6GJQsqaUBKTNV-1" source="G9P82WGp1A6Tgu5w0M1S-51" target="G9P82WGp1A6Tgu5w0M1S-56">
          <mxGeometry relative="1" as="geometry" />
        </mxCell>
        <mxCell id="G9P82WGp1A6Tgu5w0M1S-51" value="Sayı &amp;gt; 0" style="rhombus;whiteSpace=wrap;html=1;" vertex="1" parent="WIyWlLk6GJQsqaUBKTNV-1">
          <mxGeometry x="1000" y="420" width="106" height="90" as="geometry" />
        </mxCell>
        <mxCell id="G9P82WGp1A6Tgu5w0M1S-53" value="Yazıdan önce uzunluk/basamak sayısı ile Sayı arasındaki fark kadar boşluk koy" style="whiteSpace=wrap;html=1;" vertex="1" parent="WIyWlLk6GJQsqaUBKTNV-1">
          <mxGeometry x="990" y="605" width="127" height="85" as="geometry" />
        </mxCell>
        <mxCell id="G9P82WGp1A6Tgu5w0M1S-56" value="Yazıdan sonra uzunluk/basamak sayısı ile Sayı arasındaki fark kadar boşluk koy" style="whiteSpace=wrap;html=1;" vertex="1" parent="WIyWlLk6GJQsqaUBKTNV-1">
          <mxGeometry x="1150" y="605" width="141" height="85" as="geometry" />
        </mxCell>
        <mxCell id="G9P82WGp1A6Tgu5w0M1S-58" value="&lt;div&gt;Evet&lt;/div&gt;" style="text;html=1;align=center;verticalAlign=middle;resizable=0;points=[];autosize=1;strokeColor=none;fillColor=none;" vertex="1" parent="WIyWlLk6GJQsqaUBKTNV-1">
          <mxGeometry x="1000" y="340" width="50" height="30" as="geometry" />
        </mxCell>
        <mxCell id="G9P82WGp1A6Tgu5w0M1S-59" value="&lt;div&gt;Evet&lt;/div&gt;" style="text;html=1;align=center;verticalAlign=middle;resizable=0;points=[];autosize=1;strokeColor=none;fillColor=none;" vertex="1" parent="WIyWlLk6GJQsqaUBKTNV-1">
          <mxGeometry x="1000" y="510" width="50" height="30" as="geometry" />
        </mxCell>
        <mxCell id="G9P82WGp1A6Tgu5w0M1S-60" value="Hayır" style="text;html=1;align=center;verticalAlign=middle;resizable=0;points=[];autosize=1;strokeColor=none;fillColor=none;" vertex="1" parent="WIyWlLk6GJQsqaUBKTNV-1">
          <mxGeometry x="1106" y="435" width="50" height="30" as="geometry" />
        </mxCell>
        <mxCell id="G9P82WGp1A6Tgu5w0M1S-61" value="Hayır" style="text;html=1;align=center;verticalAlign=middle;resizable=0;points=[];autosize=1;strokeColor=none;fillColor=none;" vertex="1" parent="WIyWlLk6GJQsqaUBKTNV-1">
          <mxGeometry x="700" y="585" width="50" height="30" as="geometry" />
        </mxCell>
        <mxCell id="G9P82WGp1A6Tgu5w0M1S-63" value="Normal printf" style="whiteSpace=wrap;html=1;" vertex="1" parent="WIyWlLk6GJQsqaUBKTNV-1">
          <mxGeometry x="1179" y="265" width="120" height="60" as="geometry" />
        </mxCell>
        <mxCell id="G9P82WGp1A6Tgu5w0M1S-65" value="Hayır" style="text;html=1;align=center;verticalAlign=middle;resizable=0;points=[];autosize=1;strokeColor=none;fillColor=none;" vertex="1" parent="WIyWlLk6GJQsqaUBKTNV-1">
          <mxGeometry x="1100" y="265" width="50" height="30" as="geometry" />
        </mxCell>
        <mxCell id="G9P82WGp1A6Tgu5w0M1S-66" value="&lt;div&gt;Sayı örn:&lt;br&gt;&lt;/div&gt;&lt;div&gt;&quot;%10x&quot; = 10&lt;br&gt;&lt;/div&gt;" style="rounded=1;whiteSpace=wrap;html=1;" vertex="1" parent="WIyWlLk6GJQsqaUBKTNV-1">
          <mxGeometry x="580" y="10" width="120" height="50" as="geometry" />
        </mxCell>
      </root>
    </mxGraphModel>
  </diagram>
</mxfile>
